<mxfile host="app.diagrams.net" modified="2020-08-20T04:19:42.270Z" agent="5.0 (Windows NT 10.0; Win64; x64) AppleWebKit/537.36 (KHTML, like Gecko) Chrome/84.0.4147.105 Safari/537.36" etag="YA9q5QvrfbU49M8lafIA" version="13.6.3" type="github">
  <diagram id="wuAjcw8ZN8VVD_lvqfY4" name="Page-1">
    <mxGraphModel dx="1422" dy="762" grid="1" gridSize="10" guides="1" tooltips="1" connect="1" arrows="1" fold="1" page="1" pageScale="1" pageWidth="850" pageHeight="1100" math="0" shadow="0">
      <root>
        <mxCell id="0" />
        <mxCell id="1" parent="0" />
        <mxCell id="bPWfzXcIHY75__R_ka0o-6" style="edgeStyle=orthogonalEdgeStyle;rounded=0;orthogonalLoop=1;jettySize=auto;html=1;exitX=0.5;exitY=1;exitDx=0;exitDy=0;entryX=0.5;entryY=0;entryDx=0;entryDy=0;strokeColor=#007FFF;" edge="1" parent="1" source="bPWfzXcIHY75__R_ka0o-1" target="bPWfzXcIHY75__R_ka0o-2">
          <mxGeometry relative="1" as="geometry" />
        </mxCell>
        <mxCell id="bPWfzXcIHY75__R_ka0o-1" value="" style="rounded=1;whiteSpace=wrap;html=1;strokeColor=#9673a6;fillColor=#CC0066;" vertex="1" parent="1">
          <mxGeometry x="80" y="70" width="240" height="70" as="geometry" />
        </mxCell>
        <mxCell id="bPWfzXcIHY75__R_ka0o-8" style="edgeStyle=orthogonalEdgeStyle;rounded=0;orthogonalLoop=1;jettySize=auto;html=1;exitX=0.5;exitY=1;exitDx=0;exitDy=0;entryX=0.5;entryY=0;entryDx=0;entryDy=0;strokeColor=#007FFF;" edge="1" parent="1" source="bPWfzXcIHY75__R_ka0o-2" target="bPWfzXcIHY75__R_ka0o-7">
          <mxGeometry relative="1" as="geometry" />
        </mxCell>
        <mxCell id="bPWfzXcIHY75__R_ka0o-2" value="" style="rounded=0;whiteSpace=wrap;html=1;fillColor=#007FFF;" vertex="1" parent="1">
          <mxGeometry x="80" y="180" width="240" height="70" as="geometry" />
        </mxCell>
        <mxCell id="bPWfzXcIHY75__R_ka0o-10" style="edgeStyle=orthogonalEdgeStyle;rounded=0;orthogonalLoop=1;jettySize=auto;html=1;exitX=1;exitY=0.5;exitDx=0;exitDy=0;entryX=0;entryY=0.5;entryDx=0;entryDy=0;strokeColor=#007FFF;" edge="1" parent="1" source="bPWfzXcIHY75__R_ka0o-7" target="bPWfzXcIHY75__R_ka0o-9">
          <mxGeometry relative="1" as="geometry" />
        </mxCell>
        <mxCell id="bPWfzXcIHY75__R_ka0o-7" value="" style="rounded=0;whiteSpace=wrap;html=1;fillColor=#007FFF;" vertex="1" parent="1">
          <mxGeometry x="80" y="290" width="240" height="70" as="geometry" />
        </mxCell>
        <mxCell id="bPWfzXcIHY75__R_ka0o-19" style="edgeStyle=orthogonalEdgeStyle;rounded=0;orthogonalLoop=1;jettySize=auto;html=1;exitX=1;exitY=0.5;exitDx=0;exitDy=0;entryX=0;entryY=0.5;entryDx=0;entryDy=0;strokeColor=#007FFF;" edge="1" parent="1" source="bPWfzXcIHY75__R_ka0o-9" target="bPWfzXcIHY75__R_ka0o-17">
          <mxGeometry relative="1" as="geometry" />
        </mxCell>
        <mxCell id="bPWfzXcIHY75__R_ka0o-9" value="" style="rounded=0;whiteSpace=wrap;html=1;fillColor=#007FFF;" vertex="1" parent="1">
          <mxGeometry x="360" y="290" width="240" height="70" as="geometry" />
        </mxCell>
        <mxCell id="bPWfzXcIHY75__R_ka0o-12" value="" style="edgeStyle=orthogonalEdgeStyle;rounded=0;orthogonalLoop=1;jettySize=auto;html=1;strokeColor=#007FFF;" edge="1" parent="1" source="bPWfzXcIHY75__R_ka0o-11" target="bPWfzXcIHY75__R_ka0o-9">
          <mxGeometry relative="1" as="geometry" />
        </mxCell>
        <mxCell id="bPWfzXcIHY75__R_ka0o-11" value="" style="rounded=0;whiteSpace=wrap;html=1;fillColor=#007FFF;" vertex="1" parent="1">
          <mxGeometry x="360" y="430" width="240" height="70" as="geometry" />
        </mxCell>
        <mxCell id="bPWfzXcIHY75__R_ka0o-14" value="" style="edgeStyle=orthogonalEdgeStyle;rounded=0;orthogonalLoop=1;jettySize=auto;html=1;strokeColor=#007FFF;" edge="1" parent="1" source="bPWfzXcIHY75__R_ka0o-13" target="bPWfzXcIHY75__R_ka0o-11">
          <mxGeometry relative="1" as="geometry" />
        </mxCell>
        <mxCell id="bPWfzXcIHY75__R_ka0o-13" value="" style="rounded=0;whiteSpace=wrap;html=1;fillColor=#007FFF;" vertex="1" parent="1">
          <mxGeometry x="660" y="430" width="240" height="70" as="geometry" />
        </mxCell>
        <mxCell id="bPWfzXcIHY75__R_ka0o-16" value="" style="edgeStyle=orthogonalEdgeStyle;rounded=0;orthogonalLoop=1;jettySize=auto;html=1;strokeColor=#007FFF;" edge="1" parent="1" source="bPWfzXcIHY75__R_ka0o-15" target="bPWfzXcIHY75__R_ka0o-13">
          <mxGeometry relative="1" as="geometry" />
        </mxCell>
        <mxCell id="bPWfzXcIHY75__R_ka0o-18" value="" style="edgeStyle=orthogonalEdgeStyle;rounded=0;orthogonalLoop=1;jettySize=auto;html=1;strokeColor=#007FFF;" edge="1" parent="1" source="bPWfzXcIHY75__R_ka0o-15" target="bPWfzXcIHY75__R_ka0o-17">
          <mxGeometry relative="1" as="geometry" />
        </mxCell>
        <mxCell id="bPWfzXcIHY75__R_ka0o-21" value="" style="edgeStyle=orthogonalEdgeStyle;rounded=0;orthogonalLoop=1;jettySize=auto;html=1;strokeColor=#007FFF;" edge="1" parent="1" source="bPWfzXcIHY75__R_ka0o-15" target="bPWfzXcIHY75__R_ka0o-20">
          <mxGeometry relative="1" as="geometry" />
        </mxCell>
        <mxCell id="bPWfzXcIHY75__R_ka0o-37" style="edgeStyle=orthogonalEdgeStyle;rounded=0;orthogonalLoop=1;jettySize=auto;html=1;strokeColor=#007FFF;" edge="1" parent="1" source="bPWfzXcIHY75__R_ka0o-15" target="bPWfzXcIHY75__R_ka0o-36">
          <mxGeometry relative="1" as="geometry" />
        </mxCell>
        <mxCell id="bPWfzXcIHY75__R_ka0o-15" value="" style="rhombus;whiteSpace=wrap;html=1;fillColor=#CC0066;" vertex="1" parent="1">
          <mxGeometry x="950" y="410" width="130" height="110" as="geometry" />
        </mxCell>
        <mxCell id="bPWfzXcIHY75__R_ka0o-17" value="" style="rounded=0;whiteSpace=wrap;html=1;fillColor=#007FFF;" vertex="1" parent="1">
          <mxGeometry x="895" y="290" width="240" height="70" as="geometry" />
        </mxCell>
        <mxCell id="bPWfzXcIHY75__R_ka0o-28" style="edgeStyle=orthogonalEdgeStyle;rounded=0;orthogonalLoop=1;jettySize=auto;html=1;entryX=0.5;entryY=0;entryDx=0;entryDy=0;strokeColor=#007FFF;" edge="1" parent="1" source="bPWfzXcIHY75__R_ka0o-20" target="bPWfzXcIHY75__R_ka0o-26">
          <mxGeometry relative="1" as="geometry" />
        </mxCell>
        <mxCell id="bPWfzXcIHY75__R_ka0o-20" value="" style="rounded=0;whiteSpace=wrap;html=1;fillColor=#007FFF;" vertex="1" parent="1">
          <mxGeometry x="895" y="580" width="240" height="70" as="geometry" />
        </mxCell>
        <mxCell id="bPWfzXcIHY75__R_ka0o-23" value="" style="edgeStyle=orthogonalEdgeStyle;rounded=0;orthogonalLoop=1;jettySize=auto;html=1;strokeColor=#007FFF;" edge="1" parent="1" source="bPWfzXcIHY75__R_ka0o-22" target="bPWfzXcIHY75__R_ka0o-20">
          <mxGeometry relative="1" as="geometry" />
        </mxCell>
        <mxCell id="bPWfzXcIHY75__R_ka0o-22" value="" style="rounded=0;whiteSpace=wrap;html=1;fillColor=#007FFF;" vertex="1" parent="1">
          <mxGeometry x="590" y="580" width="240" height="70" as="geometry" />
        </mxCell>
        <mxCell id="bPWfzXcIHY75__R_ka0o-25" value="" style="edgeStyle=orthogonalEdgeStyle;rounded=0;orthogonalLoop=1;jettySize=auto;html=1;strokeColor=#007FFF;" edge="1" parent="1" source="bPWfzXcIHY75__R_ka0o-24" target="bPWfzXcIHY75__R_ka0o-22">
          <mxGeometry relative="1" as="geometry" />
        </mxCell>
        <mxCell id="bPWfzXcIHY75__R_ka0o-30" value="" style="edgeStyle=orthogonalEdgeStyle;rounded=0;orthogonalLoop=1;jettySize=auto;html=1;strokeColor=#007FFF;" edge="1" parent="1" source="bPWfzXcIHY75__R_ka0o-24" target="bPWfzXcIHY75__R_ka0o-29">
          <mxGeometry relative="1" as="geometry" />
        </mxCell>
        <mxCell id="bPWfzXcIHY75__R_ka0o-24" value="" style="rhombus;whiteSpace=wrap;html=1;fillColor=#CC0066;" vertex="1" parent="1">
          <mxGeometry x="645" y="710" width="130" height="110" as="geometry" />
        </mxCell>
        <mxCell id="bPWfzXcIHY75__R_ka0o-27" style="edgeStyle=orthogonalEdgeStyle;rounded=0;orthogonalLoop=1;jettySize=auto;html=1;entryX=1;entryY=0.5;entryDx=0;entryDy=0;strokeColor=#007FFF;" edge="1" parent="1" source="bPWfzXcIHY75__R_ka0o-26" target="bPWfzXcIHY75__R_ka0o-24">
          <mxGeometry relative="1" as="geometry" />
        </mxCell>
        <mxCell id="bPWfzXcIHY75__R_ka0o-26" value="" style="rounded=0;whiteSpace=wrap;html=1;fillColor=#007FFF;" vertex="1" parent="1">
          <mxGeometry x="895" y="730" width="240" height="70" as="geometry" />
        </mxCell>
        <mxCell id="bPWfzXcIHY75__R_ka0o-32" value="" style="edgeStyle=orthogonalEdgeStyle;rounded=0;orthogonalLoop=1;jettySize=auto;html=1;strokeColor=#007FFF;" edge="1" parent="1" source="bPWfzXcIHY75__R_ka0o-29" target="bPWfzXcIHY75__R_ka0o-31">
          <mxGeometry relative="1" as="geometry" />
        </mxCell>
        <mxCell id="bPWfzXcIHY75__R_ka0o-29" value="" style="rounded=0;whiteSpace=wrap;html=1;fillColor=#007FFF;" vertex="1" parent="1">
          <mxGeometry x="320" y="730" width="240" height="70" as="geometry" />
        </mxCell>
        <mxCell id="bPWfzXcIHY75__R_ka0o-34" value="" style="edgeStyle=orthogonalEdgeStyle;rounded=0;orthogonalLoop=1;jettySize=auto;html=1;strokeColor=#007FFF;" edge="1" parent="1" source="bPWfzXcIHY75__R_ka0o-31" target="bPWfzXcIHY75__R_ka0o-33">
          <mxGeometry relative="1" as="geometry" />
        </mxCell>
        <mxCell id="bPWfzXcIHY75__R_ka0o-31" value="" style="rounded=0;whiteSpace=wrap;html=1;fillColor=#007FFF;" vertex="1" parent="1">
          <mxGeometry x="40" y="730" width="240" height="70" as="geometry" />
        </mxCell>
        <mxCell id="bPWfzXcIHY75__R_ka0o-33" value="" style="rounded=1;whiteSpace=wrap;html=1;strokeColor=#9673a6;fillColor=#CC0066;" vertex="1" parent="1">
          <mxGeometry x="85" y="620" width="150" height="50" as="geometry" />
        </mxCell>
        <mxCell id="bPWfzXcIHY75__R_ka0o-35" value="" style="shape=card;whiteSpace=wrap;html=1;" vertex="1" parent="1">
          <mxGeometry x="990" y="20" width="370" height="260" as="geometry" />
        </mxCell>
        <mxCell id="bPWfzXcIHY75__R_ka0o-38" style="edgeStyle=orthogonalEdgeStyle;rounded=0;orthogonalLoop=1;jettySize=auto;html=1;entryX=1;entryY=0.5;entryDx=0;entryDy=0;strokeColor=#007FFF;" edge="1" parent="1" source="bPWfzXcIHY75__R_ka0o-36" target="bPWfzXcIHY75__R_ka0o-17">
          <mxGeometry relative="1" as="geometry">
            <Array as="points">
              <mxPoint x="1300" y="325" />
            </Array>
          </mxGeometry>
        </mxCell>
        <mxCell id="bPWfzXcIHY75__R_ka0o-36" value="" style="rounded=0;whiteSpace=wrap;html=1;fillColor=#007FFF;" vertex="1" parent="1">
          <mxGeometry x="1180" y="430" width="240" height="70" as="geometry" />
        </mxCell>
      </root>
    </mxGraphModel>
  </diagram>
</mxfile>
